<svg xmlns="http://www.w3.org/2000/svg" viewBox="0 0 200 160" width="400" height="320" style="image-rendering:pixelated">
  <rect width="200" height="160" fill="#1a1a2e"/>
  <rect x="10" y="8" width="2" height="2" fill="#ffffff" opacity="0.8"/>
  <rect x="45" y="15" width="2" height="2" fill="#ffffff" opacity="0.6"/>
  <rect x="80" y="6" width="2" height="2" fill="#ffffff" opacity="0.9"/>
  <rect x="120" y="12" width="2" height="2" fill="#ffffff" opacity="0.7"/>
  <rect x="160" y="8" width="2" height="2" fill="#ffffff" opacity="0.8"/>
  <rect x="30" y="25" width="2" height="2" fill="#ffeeaa" opacity="0.6"/>
  <rect x="140" y="22" width="2" height="2" fill="#ffeeaa" opacity="0.7"/>
  <rect x="160" y="12" width="16" height="16" fill="#ffeebb"/>
  <rect x="162" y="10" width="12" height="20" fill="#ffeebb"/>
  <rect x="158" y="14" width="20" height="12" fill="#ffeebb"/>
  <rect x="168" y="12" width="6" height="16" fill="#1a1a2e"/>
  <rect x="166" y="14" width="8" height="12" fill="#1a1a2e"/>
  <rect x="0" y="130" width="200" height="30" fill="#2a2a1a"/>
  <rect x="0" y="128" width="200" height="4" fill="#3a6a2a"/>
  <rect x="58" y="40" width="22" height="8" fill="#8b6940"/>
  <rect x="56" y="44" width="4" height="12" fill="#8b6940"/>
  <rect x="78" y="44" width="4" height="10" fill="#8b6940"/>
  <rect x="58" y="48" width="22" height="18" fill="#e8c9a8"/>
  <rect x="60" y="53" width="8" height="6" fill="none" stroke="#5a4030" stroke-width="1.5"/>
  <rect x="70" y="53" width="8" height="6" fill="none" stroke="#5a4030" stroke-width="1.5"/>
  <rect x="68" y="55" width="2" height="2" fill="#5a4030"/>
  <rect x="56" y="55" width="4" height="2" fill="#5a4030"/>
  <rect x="78" y="55" width="4" height="2" fill="#5a4030"/>
  <rect x="62" y="55" width="4" height="3" fill="#4a3520"/>
  <rect x="72" y="55" width="4" height="3" fill="#4a3520"/>
  <rect x="64" y="62" width="8" height="2" fill="#c4896a"/>
  <rect x="56" y="66" width="26" height="22" fill="#c8b89a"/>
  <rect x="50" y="68" width="6" height="14" fill="#c8b89a"/>
  <rect x="82" y="68" width="6" height="14" fill="#c8b89a"/>
  <rect x="80" y="76" width="8" height="6" fill="#e8c9a8"/>
  <rect x="58" y="88" width="10" height="24" fill="#4a4a6a"/>
  <rect x="70" y="88" width="10" height="24" fill="#4a4a6a"/>
  <rect x="56" y="110" width="12" height="6" fill="#2a2a2a"/>
  <rect x="70" y="110" width="12" height="6" fill="#2a2a2a"/>
  <rect x="90" y="92" width="20" height="18" fill="#f5f5f5"/>
  <rect x="88" y="94" width="24" height="14" fill="#f5f5f5"/>
  <rect x="88" y="102" width="24" height="8" fill="#ffb6c1"/>
  <rect x="86" y="106" width="28" height="6" fill="#ffb6c1"/>
  <rect x="90" y="88" width="6" height="6" fill="#f5f5f5"/>
  <rect x="102" y="88" width="6" height="6" fill="#f5f5f5"/>
  <rect x="91" y="89" width="4" height="4" fill="#ffb6c1"/>
  <rect x="103" y="89" width="4" height="4" fill="#ffb6c1"/>
  <rect x="93" y="96" width="4" height="4" fill="#3a3a5a"/>
  <rect x="101" y="96" width="4" height="4" fill="#3a3a5a"/>
  <rect x="94" y="97" width="2" height="2" fill="#ffffff"/>
  <rect x="102" y="97" width="2" height="2" fill="#ffffff"/>
  <rect x="97" y="101" width="6" height="2" fill="#ff9999"/>
  <rect x="84" y="100" width="6" height="4" fill="#f5f5f5"/>
  <rect x="110" y="100" width="6" height="4" fill="#f5f5f5"/>
  <rect x="92" y="110" width="6" height="8" fill="#f5f5f5"/>
  <rect x="102" y="110" width="6" height="8" fill="#f5f5f5"/>
  <rect x="108" y="104" width="4" height="2" fill="#f5f5f5"/>
  <rect x="110" y="102" width="2" height="4" fill="#f5f5f5"/>
  <rect x="112" y="104" width="2" height="2" fill="#f5f5f5"/>
  <rect x="91" y="84" width="18" height="6" fill="#ffb6c1" rx="1"/>
  <text x="100" y="89" text-anchor="middle" font-size="4" fill="#ffffff" font-family="monospace">糯糯</text>
  <rect x="122" y="50" width="20" height="6" fill="#2a2020"/>
  <rect x="120" y="54" width="4" height="16" fill="#2a2020"/>
  <rect x="138" y="54" width="4" height="14" fill="#2a2020"/>
  <rect x="122" y="54" width="18" height="16" fill="#f0d0b0"/>
  <rect x="125" y="58" width="5" height="4" fill="#2a2020"/>
  <rect x="133" y="58" width="5" height="4" fill="#2a2020"/>
  <rect x="126" y="59" width="2" height="2" fill="#ffffff"/>
  <rect x="134" y="59" width="2" height="2" fill="#ffffff"/>
  <rect x="126" y="66" width="10" height="2" fill="#e08888"/>
  <rect x="124" y="64" width="2" height="2" fill="#e08888"/>
  <rect x="136" y="64" width="2" height="2" fill="#e08888"/>
  <rect x="120" y="70" width="22" height="20" fill="#e8a0a0"/>
  <rect x="114" y="76" width="8" height="6" fill="#f0d0b0"/>
  <rect x="142" y="74" width="6" height="12" fill="#e8a0a0"/>
  <rect x="118" y="90" width="26" height="18" fill="#d080a0"/>
  <rect x="122" y="108" width="8" height="12" fill="#f0d0b0"/>
  <rect x="132" y="108" width="8" height="12" fill="#f0d0b0"/>
  <rect x="120" y="118" width="10" height="6" fill="#cc6666"/>
  <rect x="132" y="118" width="10" height="6" fill="#cc6666"/>
  <rect x="86" y="100" width="4" height="4" fill="#e8c9a8"/>
  <rect x="114" y="100" width="4" height="4" fill="#f0d0b0"/>
  <rect x="97" y="70" width="4" height="4" fill="#ff6688"/>
  <rect x="101" y="70" width="4" height="4" fill="#ff6688"/>
  <rect x="95" y="72" width="12" height="4" fill="#ff6688"/>
  <rect x="97" y="76" width="8" height="4" fill="#ff6688"/>
  <rect x="99" y="80" width="4" height="2" fill="#ff6688"/>
  <text x="100" y="148" text-anchor="middle" font-size="6" fill="#aaaacc" font-family="monospace">克 ♡ 糯糯 ♡ Lee</text>
</svg>
